<svg width="21" height="21" viewBox="0 0 21 21" fill="none" xmlns="http://www.w3.org/2000/svg">
<path d="M14.2951 4.611L9.87287 8.9938C9.29156 9.56993 9.29156 10.504 9.87287 11.0801C10.4542 11.6563 11.3967 11.6563 11.978 11.0801L16.4002 6.69734C16.9815 6.12122 16.9815 5.18713 16.4002 4.611C15.8189 4.03488 14.8764 4.03488 14.2951 4.611Z" fill="#60096A"/>
<path d="M8.05731 12.1122C7.93099 12.6093 8.3958 13.0538 8.8868 12.9056C9.35189 12.7651 9.51042 12.1869 9.18202 11.8289C8.82779 11.4427 8.18636 11.6043 8.05731 12.1122Z" fill="#60096A"/>
<path d="M17.9309 2.43103C17.7165 2.21905 17.4261 2.10001 17.1233 2.10001C16.8204 2.10001 16.53 2.21905 16.3156 2.43103C16.0488 2.69554 16.0488 3.12694 16.3156 3.39145L17.4979 4.56319C17.7662 4.8291 18.1987 4.8291 18.467 4.56319C18.6809 4.35074 18.801 4.06289 18.801 3.7628C18.801 3.4627 18.6809 3.17485 18.467 2.9624L17.9309 2.43103Z" fill="#60096A"/>
<path d="M8.58319 2.31001C8.41657 2.31001 6.9139 2.31001 5.31008 2.31001C3.65322 2.31001 2.31 3.65316 2.31 5.31001V15.69C2.31 17.3469 3.65315 18.69 5.31 18.69H15.69C17.3469 18.69 18.69 17.3469 18.69 15.69V11.9891" stroke="#6D6F79" stroke-width="2" stroke-linecap="round"/>
</svg>
