<svg width="132" height="30" viewBox="0 0 132 30" fill="none" xmlns="http://www.w3.org/2000/svg">
<g clip-path="url(#clip0_38151_13)">
<path fill-rule="evenodd" clip-rule="evenodd" d="M0 7.68678L4.24937 6V29.9044H0V7.68678Z" fill="#E91E63"/>
<path fill-rule="evenodd" clip-rule="evenodd" d="M14.6883 13.3362C16.3422 13.3362 17.9591 13.824 19.3343 14.7379C20.7095 15.6518 21.7814 16.9507 22.4143 18.4704C23.0472 19.9902 23.2129 21.6624 22.8902 23.2758C22.5675 24.8891 21.771 26.3711 20.6015 27.5343C19.432 28.6974 17.9419 29.4896 16.3198 29.8104C14.6976 30.1314 13.0161 29.9667 11.4881 29.3372C9.96003 28.7077 8.65397 27.6416 7.73508 26.2739C6.81618 24.9062 6.32572 23.2982 6.32572 21.6532C6.3261 19.4475 7.20728 17.3323 8.77548 15.7726C10.3437 14.2129 12.4705 13.3366 14.6883 13.3362ZM14.6883 17.4977C15.515 17.4976 16.3231 17.7413 17.0104 18.1979C17.6978 18.6547 18.2336 19.3038 18.55 20.0634C18.8663 20.8229 18.9491 21.6587 18.7879 22.4651C18.6267 23.2714 18.2286 24.0121 17.6441 24.5934C17.0596 25.1748 16.3148 25.5707 15.504 25.731C14.6933 25.8914 13.8529 25.8091 13.0892 25.4944C12.3255 25.1797 11.6728 24.6469 11.2136 23.9632C10.7544 23.2796 10.5093 22.4759 10.5094 21.6538C10.5095 20.5515 10.9498 19.4944 11.7335 18.715C12.5172 17.9356 13.58 17.4977 14.6883 17.4977Z" fill="#E91E63"/>
<path fill-rule="evenodd" clip-rule="evenodd" d="M47.7387 13.3362C49.3927 13.3362 51.0095 13.824 52.385 14.7379C53.7601 15.6518 54.832 16.9507 55.465 18.4704C56.0979 19.9902 56.2634 21.6624 55.9408 23.2758C55.6182 24.8891 54.8215 26.3711 53.6521 27.5343C52.4824 28.6974 50.9926 29.4896 49.3703 29.8104C47.748 30.1314 46.0669 29.9667 44.5385 29.3372C43.0106 28.7077 41.7046 27.6416 40.7857 26.2739C39.8668 24.9062 39.3763 23.2982 39.3763 21.6532C39.3763 19.4474 40.2574 17.332 41.8257 15.7722C43.3938 14.2125 45.5211 13.3362 47.7387 13.3362ZM47.8788 17.6595C48.7052 17.6597 49.5134 17.9035 50.2005 18.3604C50.8876 18.8172 51.4232 19.4665 51.7394 20.2261C52.0557 20.9856 52.1382 21.8214 51.9769 22.6277C51.8156 23.4339 51.4172 24.1745 50.833 24.7558C50.2484 25.337 49.5037 25.7328 48.6929 25.893C47.8822 26.0533 47.0418 25.9709 46.2781 25.6562C45.5144 25.3414 44.862 24.8086 44.4026 24.125C43.9437 23.4414 43.6986 22.6377 43.6986 21.8156C43.6986 21.2697 43.8065 20.7292 44.017 20.2249C44.2269 19.7206 44.5347 19.2623 44.9229 18.8764C45.3112 18.4904 45.7718 18.1843 46.279 17.9755C46.7861 17.7667 47.3297 17.6594 47.8788 17.6595Z" fill="#E91E63"/>
<path fill-rule="evenodd" clip-rule="evenodd" d="M51.6454 13.0288H56.2761V29.9304H51.6454V24.7305C53.5315 23.1324 52.9761 20.3524 51.6454 17.2V13.0288Z" fill="#E91E63"/>
<path fill-rule="evenodd" clip-rule="evenodd" d="M58.5432 7.68678L62.7924 6V29.9044H58.5432V7.68678Z" fill="#E91E63"/>
<path fill-rule="evenodd" clip-rule="evenodd" d="M104.294 7.68678L108.543 6V29.9044H104.294V7.68678Z" fill="#E91E63"/>
<path fill-rule="evenodd" clip-rule="evenodd" d="M111.644 7.68662L115.895 6.00053V29.9043H111.644V7.68662Z" fill="#E91E63"/>
<path fill-rule="evenodd" clip-rule="evenodd" d="M64.0823 13.0859H68.3409L71.3361 22.1841L73.8543 13.0859H77.5028L80.1652 22.1841L83.2723 13.0859H87.6667L82.2067 29.8849H78.4379L75.8809 22.184H75.5595L73.0622 29.8849H69.412L64.0823 13.0859Z" fill="#E91E63"/>
<path fill-rule="evenodd" clip-rule="evenodd" d="M35.7096 19.1181L39.1958 16.6729C35.7605 12.9502 30.1951 11.6953 26.1854 15.8569C25.5314 16.5212 25.003 17.2972 24.6255 18.1478C20.3328 27.3397 33.5426 34.6774 39.1958 26.3803L35.6 24.045C33.8549 26.0461 30.9106 26.1796 29.1047 23.8617C26.6851 19.9267 31.1295 15.3393 35.7096 19.1181Z" fill="#E91E63"/>
<path fill-rule="evenodd" clip-rule="evenodd" d="M97.5381 24.6305L100.606 27.4984C95.9666 31.6146 89.6408 30.5106 86.9915 25.0488C86.6591 24.4337 86.4462 23.7618 86.3641 23.0683C84.55 10.7693 104.299 9.5176 102.822 23.5901H91.6611V23.9911C92.7872 26.0709 95.5382 26.0946 97.5381 24.6305ZM91.9587 19.2985C91.7873 19.3051 91.656 19.2618 91.9803 18.9179C93.5099 17.4614 95.512 17.3502 97.4958 18.9114C97.7117 19.1561 97.7321 19.3016 97.4958 19.3254L91.9587 19.2985Z" fill="#E91E63"/>
</g>
<g clip-path="url(#clip1_38151_13)">
<path d="M126 0.9375C124.999 0.9375 124.02 1.23441 123.187 1.79069C122.355 2.34696 121.706 3.13761 121.323 4.06266C120.94 4.98772 120.839 6.00562 121.035 6.98764C121.23 7.96967 121.712 8.87173 122.42 9.57973C123.128 10.2877 124.03 10.7699 125.012 10.9652C125.994 11.1606 127.012 11.0603 127.937 10.6771C128.862 10.294 129.653 9.6451 130.209 8.81257C130.766 7.98005 131.063 7.00127 131.063 6C131.061 4.6578 130.527 3.371 129.578 2.42192C128.629 1.47284 127.342 0.938989 126 0.9375ZM126 9.9375C125.221 9.9375 124.46 9.70657 123.812 9.27391C123.165 8.84125 122.66 8.2263 122.362 7.50682C122.064 6.78733 121.986 5.99563 122.138 5.23183C122.29 4.46803 122.665 3.76644 123.216 3.21577C123.766 2.6651 124.468 2.29009 125.232 2.13816C125.996 1.98623 126.787 2.0642 127.507 2.36222C128.226 2.66024 128.841 3.16492 129.274 3.81244C129.707 4.45996 129.938 5.22124 129.938 6C129.936 7.04395 129.521 8.04482 128.783 8.783C128.045 9.52118 127.044 9.93638 126 9.9375ZM127.345 6.62906C127.638 6.42262 127.857 6.12838 127.972 5.78893C128.086 5.44949 128.09 5.08244 127.982 4.74092C127.874 4.3994 127.66 4.10113 127.371 3.88928C127.082 3.67742 126.733 3.56297 126.375 3.5625H124.875C124.726 3.5625 124.583 3.62176 124.477 3.72725C124.372 3.83274 124.313 3.97582 124.313 4.125V7.875C124.313 8.02418 124.372 8.16726 124.477 8.27275C124.583 8.37824 124.726 8.4375 124.875 8.4375C125.024 8.4375 125.167 8.37824 125.273 8.27275C125.378 8.16726 125.438 8.02418 125.438 7.875V6.9375H126.199L127.031 8.18719C127.114 8.31151 127.243 8.39784 127.389 8.42721C127.536 8.45657 127.688 8.42655 127.812 8.34375C127.937 8.26095 128.023 8.13216 128.052 7.98571C128.082 7.83925 128.052 7.68713 127.969 7.56281L127.345 6.62906ZM125.438 4.6875H126.375C126.524 4.6875 126.667 4.74676 126.773 4.85225C126.878 4.95774 126.938 5.10082 126.938 5.25C126.938 5.39918 126.878 5.54226 126.773 5.64775C126.667 5.75324 126.524 5.8125 126.375 5.8125H125.438V4.6875Z" fill="#757575"/>
</g>
<defs>
<clipPath id="clip0_38151_13">
<rect width="116" height="24" fill="white" transform="translate(0 6)"/>
</clipPath>
<clipPath id="clip1_38151_13">
<rect width="12" height="12" fill="white" transform="translate(120)"/>
</clipPath>
</defs>
</svg>
