<svg width="21" height="21" viewBox="0 0 21 21" fill="none" xmlns="http://www.w3.org/2000/svg">
<path fill-rule="evenodd" clip-rule="evenodd" d="M1.60995 13.1024C1.60995 12.2519 2.29944 11.5624 3.14995 11.5624H11.0197C11.4063 11.5624 11.7197 11.8758 11.7197 12.2624C11.7197 12.649 11.4063 12.9624 11.0197 12.9624H3.14995C3.07263 12.9624 3.00995 13.0251 3.00995 13.1024V13.9105C3.00995 13.9878 3.07264 14.0505 3.14996 14.0505H10.6568C11.0434 14.0505 11.3568 14.3639 11.3568 14.7505C11.3568 15.1371 11.0434 15.4505 10.6568 15.4505H3.14996C2.29944 15.4505 1.60995 14.761 1.60995 13.9105V13.1024Z" fill="#6D6F79"/>
<path fill-rule="evenodd" clip-rule="evenodd" d="M3.00999 3.01V12.7332C3.00999 13.1198 2.69659 13.4332 2.30999 13.4332C1.92339 13.4332 1.60999 13.1198 1.60999 12.7332V2.94C1.60999 2.20546 2.20545 1.61 2.93999 1.61H18.27C19.0045 1.61 19.6 2.20546 19.6 2.94V9.80167C19.6 10.1883 19.2866 10.5017 18.9 10.5017C18.5134 10.5017 18.2 10.1883 18.2 9.80167V3.01H3.00999Z" fill="#6D6F79"/>
<path fill-rule="evenodd" clip-rule="evenodd" d="M10.1902 15.0872C10.5768 15.0872 10.8902 15.4006 10.8902 15.7872V18.69C10.8902 19.0766 10.5768 19.39 10.1902 19.39C9.80357 19.39 9.49017 19.0766 9.49017 18.69V15.7872C9.49017 15.4006 9.80357 15.0872 10.1902 15.0872Z" fill="#6D6F79"/>
<path fill-rule="evenodd" clip-rule="evenodd" d="M13.0156 5.2128C13.0156 4.8262 13.329 4.5128 13.7156 4.5128L16.6188 4.5128C17.0054 4.5128 17.3188 4.8262 17.3188 5.2128C17.3188 5.5994 17.0054 5.9128 16.6188 5.9128L13.7156 5.9128C13.329 5.9128 13.0156 5.5994 13.0156 5.2128Z" fill="#6D6F79"/>
<path fill-rule="evenodd" clip-rule="evenodd" d="M6.587 18.69C6.587 18.3034 6.9004 17.99 7.287 17.99H13.0935C13.4801 17.99 13.7935 18.3034 13.7935 18.69C13.7935 19.0766 13.4801 19.39 13.0935 19.39H7.287C6.9004 19.39 6.587 19.0766 6.587 18.69Z" fill="#6D6F79"/>
<path d="M16.205 17.71C18.5826 17.71 20.51 15.7826 20.51 13.405C20.51 11.0274 18.5826 9.10001 16.205 9.10001C13.8275 9.10001 11.9 11.0274 11.9 13.405C11.9 15.7826 13.8275 17.71 16.205 17.71Z" fill="#60096A"/>
<path d="M16.2064 13.1794C16.3795 13.1794 16.5488 13.1252 16.6928 13.0236C16.8367 12.922 16.9489 12.7776 17.0152 12.6086C17.0815 12.4397 17.0988 12.2538 17.065 12.0745C17.0312 11.8951 16.9479 11.7304 16.8254 11.6011C16.703 11.4718 16.547 11.3837 16.3772 11.3481C16.2073 11.3124 16.0313 11.3307 15.8713 11.4007C15.7114 11.4707 15.5746 11.5892 15.4785 11.7412C15.3823 11.8932 15.3309 12.072 15.3309 12.2548C15.3309 12.5 15.4231 12.7352 15.5873 12.9086C15.7515 13.082 15.9742 13.1794 16.2064 13.1794ZM17.5196 15.4907C17.5776 15.4907 17.6333 15.4664 17.6743 15.423C17.7154 15.3797 17.7384 15.3209 17.7384 15.2596C17.7384 14.8305 17.577 14.4189 17.2897 14.1155C17.0024 13.8121 16.6127 13.6416 16.2064 13.6416C15.8 13.6416 15.4104 13.8121 15.123 14.1155C14.8357 14.4189 14.6743 14.8305 14.6743 15.2596C14.6743 15.3209 14.6974 15.3797 14.7384 15.423C14.7795 15.4664 14.8351 15.4907 14.8932 15.4907H17.5196Z" fill="white"/>
</svg>
